<?xml version="1.0" encoding="UTF-8"?>
<svg width="50px" height="49px" viewBox="0 0 50 49" version="1.1" xmlns="http://www.w3.org/2000/svg" xmlns:xlink="http://www.w3.org/1999/xlink">
    <!-- Generator: Sketch 40.3 (33839) - http://www.bohemiancoding.com/sketch -->
    <title>logo</title>
    <desc>Created with Sketch.</desc>
    <defs></defs>
    <g id="Markup" stroke="none" stroke-width="1" fill="none" fill-rule="evenodd">
        <g id="Mobile" transform="translate(-20.000000, -18.000000)" fill="#FFFFFF">
            <g id="logo" transform="translate(20.000000, 18.000000)">
                <path d="M7.58944654,34.1196594 C7.78305452,34.1642585 7.98318571,34.1853805 8.1858143,34.1920723 C8.14503509,34.390731 8.11648221,34.5900627 8.11428296,34.7886841 C8.10593327,35.5731506 8.41457287,36.2637085 8.98324509,36.7335511 C10.8693759,38.2923157 13.2940606,39.2960023 15.9948806,39.6363465 C16.1243006,39.6527955 16.2549132,39.6605713 16.3861223,39.6605713 C17.3373883,39.6605713 18.3081494,39.2332344 19.0733369,38.5655182 C19.0999515,38.598005 19.1229131,38.6327721 19.1513542,38.6640626 C19.6460721,39.2077759 20.3513211,39.4981751 21.1442415,39.4981751 C21.3461246,39.4981751 21.5539718,39.4793336 21.7650992,39.4410523 C24.6394732,38.9200685 27.5779607,37.7722291 30.2626779,36.1216492 C31.2983352,35.4846253 32.0313169,34.4609009 32.2230611,33.3839417 C32.2251486,33.3723153 32.2239185,33.3612496 32.2258568,33.3496606 C32.2375612,33.350483 32.2479983,33.3542214 32.25974,33.3549317 C32.3262392,33.3588197 32.3927383,33.3609132 32.4595357,33.3606141 C33.4895271,33.3606141 34.5651436,32.892566 35.372676,32.0844727 C37.6011433,29.8542908 39.4022865,27.2583436 40.5807828,24.5768616 C41.0072124,23.6066712 40.9559215,22.6113587 40.4400312,21.846631 C40.4180014,21.814032 40.3914242,21.7856202 40.3680153,21.7542924 C41.3081732,21.0833238 42.0019041,20.0698426 42.1215951,18.9964723 L42.1215951,18.9967714 C42.4242707,16.2829896 42.0193116,13.6837526 40.9502556,11.4801881 C40.6281969,10.8156495 40.0308973,10.3529847 39.2686917,10.1774293 C39.0746737,10.133017 38.8739089,10.1142129 38.6709447,10.1075959 C38.7120594,9.90818949 38.7407614,9.70807275 38.7429606,9.5087037 C38.7516085,8.72453624 38.4432671,8.0336793 37.8742967,7.56353771 C35.9887623,6.00507213 33.5637794,5.00138559 30.8623629,4.66074231 C29.7922632,4.5240663 28.6476502,4.963553 27.7775325,5.72379468 C27.7529681,5.6940744 27.7320194,5.66203624 27.7058893,5.6333253 C27.0856281,4.95144057 26.1334675,4.66792001 25.0921443,4.85633555 C22.2168757,5.37731941 19.2783883,6.52515881 16.5948639,8.17573863 C15.5592065,8.81276258 14.8262248,9.83588876 14.6341824,10.9131471 C14.6320949,10.9248856 14.6332878,10.9360261 14.6313494,10.9477273 C14.6196823,10.9469048 14.6092452,10.9431664 14.5975035,10.9424561 C13.5054859,10.8739686 12.3445835,11.351886 11.4845675,12.2129151 C9.25520553,14.4439942 7.45436056,17.0399415 6.27675883,19.7202271 C5.85003102,20.6907167 5.90162008,21.6860292 6.4178086,22.4507569 C6.4397265,22.4832437 6.46585647,22.5116181 6.48915356,22.5428338 C5.5489956,23.2136903 4.85533931,24.2270966 4.73564827,25.3006165 C4.4329727,28.0138001 4.83793175,30.6133362 5.90728591,32.8174988 C6.2296431,33.4820374 6.82694276,33.9444031 7.58944654,34.1196594 L7.58944654,34.1196594 Z M16.2233037,37.8132019 C13.8669075,37.5162231 11.766369,36.6525024 10.148024,35.3153503 C10.0973296,35.2734802 9.94286072,35.1457763 9.94643917,34.8087219 C9.95210499,34.2946167 10.3090534,33.6830139 10.856255,33.2508545 C10.8591252,33.2486115 10.8611008,33.2456955 10.8639337,33.2434151 L21.2748543,25.0194886 C21.4701769,24.8651672 21.6410469,24.8253906 21.73677,24.8250915 C21.7361735,24.8271851 21.7355772,24.8295776 21.7349807,24.8316711 L18.6217466,36.0767883 C18.3465057,37.0709046 17.1578704,37.9310364 16.2233037,37.8132019 L16.2233037,37.8132019 Z M23.9937902,20.9580124 C24.0095577,20.9693024 24.0226413,20.9828354 24.0388933,20.9936767 C24.2071541,21.1060157 24.3918532,21.1857185 24.5856476,21.2377945 C24.5911644,21.4375 24.6221029,21.6351868 24.6910622,21.8242005 C24.697809,21.8426682 24.7077988,21.8587433 24.7150675,21.8768372 C24.4674848,22.1120949 24.2580721,22.390419 24.1125493,22.7049683 C24.0803807,22.7744278 24.0550335,22.8444855 24.0303199,22.9145432 C23.956403,22.9222069 23.8822996,22.930581 23.8071899,22.9457215 C23.4684319,23.0139474 23.1497652,23.1529038 22.8638635,23.339151 C22.8480588,23.3278611 22.8349379,23.3142906 22.8186486,23.3034119 C22.6507233,23.1912598 22.4653159,23.1143608 22.271857,23.0622475 C22.2666385,22.8614952 22.2355136,22.6627991 22.1661815,22.4728883 C22.1595092,22.4545701 22.1494821,22.4386818 22.1422881,22.4207376 C22.3898334,22.185592 22.5991716,21.9074174 22.7446944,21.5930177 C22.7783168,21.5203805 22.805155,21.4471826 22.830614,21.3739472 C22.9037482,21.3663209 22.975354,21.3666948 23.0497556,21.3516663 C23.3888118,21.283403 23.7077022,21.1443718 23.9937902,20.9580124 L23.9937902,20.9580124 Z M30.4195324,33.0606445 C30.3196345,33.621106 29.8926085,34.1935303 29.3048514,34.5551086 C26.8121766,36.087854 24.0922716,37.1519531 21.4394621,37.6328613 C21.0318192,37.7064331 20.6921666,37.6313659 20.5051936,37.4259033 C20.3298505,37.2330017 20.2881021,36.9282471 20.388,36.567865 C20.3886337,36.5655472 20.3885591,36.5632668 20.3891928,36.5609489 L23.4982149,25.331047 C23.4984385,25.3302994 23.4989604,25.329776 23.4991468,25.3290283 C23.552525,25.1364258 23.7227987,24.9450195 23.9434686,24.8292785 C24.1295469,24.73208 24.2753679,24.7284912 24.2777536,24.7141357 L30.2996551,32.3817504 C30.4618772,32.5884094 30.4544221,32.8650513 30.4195324,33.0606445 L30.4195324,33.0606445 Z M38.9042883,23.8357605 C37.8164456,26.3105834 36.1477043,28.713031 34.0784771,30.7838073 C33.5903196,31.2718933 32.9417292,31.5530212 32.3688821,31.5207214 C32.1711739,31.5087585 31.9010024,31.4513367 31.7387802,31.2446777 L25.7742455,23.6674575 C25.7620192,23.6475319 25.7504638,23.6273071 25.7365601,23.6080543 C25.7369329,23.5602775 25.7762956,23.4284987 25.907132,23.2782897 C26.0708452,23.0901733 26.2962862,22.969049 26.4948891,22.9621703 C26.4955228,22.962133 26.4960819,22.961946 26.4967156,22.9619087 L38.1123742,22.5607406 C38.1142753,22.5606658 38.1160272,22.5611892 38.1179282,22.5611145 C38.4948562,22.550946 38.7766576,22.6604065 38.9224786,22.8766357 C39.0778422,23.1066223 39.0709836,23.4562378 38.9042883,23.8357605 L38.9042883,23.8357605 Z M39.3026869,12.2837952 C40.2196596,14.1745301 40.5649781,16.4250489 40.3007707,18.7922058 L40.3007707,18.7925049 C40.1961016,19.7315918 39.0841044,20.6886231 38.0559022,20.7242127 L26.4266008,21.1258667 L26.4194439,21.1258667 C26.4424055,21.0328552 26.5208327,20.8755433 26.7161554,20.721222 L37.1356492,12.4907532 C37.5817602,12.138147 38.1137535,11.9368714 38.5658285,11.9368714 C38.668112,11.9368714 38.7665188,11.9473389 38.8589616,11.968573 C39.1863879,12.0439392 39.2737613,12.2242798 39.3026869,12.2837952 L39.3026869,12.2837952 Z M30.63394,6.48388672 C32.9906344,6.78116457 35.0914711,7.64488525 36.7092197,8.98173828 C36.7599141,9.02360841 36.9146813,9.15131228 36.9108046,9.48836668 C36.9051388,10.0024719 36.5481903,10.6140747 36.0009887,11.0462341 C35.9976339,11.0488884 35.9952856,11.0522529 35.9919681,11.0549446 L25.5843651,19.276329 C25.5837314,19.276815 25.5830231,19.2771141 25.5823894,19.2776001 C25.3870668,19.4319214 25.2161968,19.471698 25.1204737,19.4719971 C25.1210702,19.4699035 25.1216665,19.4678101 25.122263,19.4654175 L28.2354971,8.22030027 C28.5107382,7.22618411 29.7023553,6.36724853 30.63394,6.48388672 L30.63394,6.48388672 Z M16.4377114,11.2364441 C16.5376092,10.6762817 16.9649334,10.1035583 17.5526906,9.74227904 C20.0444707,8.20983277 22.7640776,7.14543455 25.4177818,6.66452638 C25.8242317,6.5909546 26.1653754,6.66602174 26.3520502,6.87148437 C26.5273933,7.06438598 26.5691417,7.36884154 26.4692438,7.72922362 C26.4686101,7.73154144 26.4686847,7.73382184 26.468051,7.73613966 L23.3586934,18.9673126 C23.3586188,18.9675743 23.3584697,18.9677986 23.3583952,18.9680603 C23.305017,19.1603637 23.1350415,19.35177 22.9140734,19.4678101 C22.7279951,19.5653076 22.5824722,19.5688965 22.5797884,19.5829529 C22.5797511,19.5829155 22.5797884,19.5829155 22.5797511,19.5828781 L16.557887,11.9156372 C16.3953666,11.7089783 16.4028217,11.4323364 16.4377114,11.2364441 L16.4377114,11.2364441 Z M7.95325359,20.4613281 C9.04020176,17.9877014 10.7089429,15.5852539 12.7787666,13.5132813 C13.2666259,13.0248962 13.9262498,12.7392822 14.4880633,12.7766663 C14.6860698,12.7883301 14.9559431,12.846051 15.1181653,13.05271 C15.1186499,13.0533455 15.1192835,13.0537567 15.1197681,13.0543923 L21.1203853,20.6942681 C21.1177388,20.7454468 21.0777424,20.8729263 20.9507081,21.0187989 C20.7866967,21.2072144 20.5612557,21.3283387 20.3623546,21.3352173 C20.3616837,21.3352547 20.3610872,21.3354416 20.3604163,21.335479 L8.7467332,21.7365723 C8.74412391,21.7366097 8.74162649,21.7359368 8.7390172,21.7359741 C8.36387845,21.7467407 8.08058606,21.6366821 7.93506327,21.420752 C7.77969978,21.1907654 7.78626018,20.8411499 7.95325359,20.4613281 L7.95325359,20.4613281 Z M6.55647308,25.5051819 L6.55647308,25.5048828 C6.66114215,24.5654968 7.77313932,23.6087647 8.80134153,23.573175 L20.4312394,23.171521 L20.4377999,23.171521 C20.4148382,23.2648316 20.336411,23.4218445 20.1410884,23.5761658 L9.72189273,31.8066345 C9.17439291,32.239093 8.49717502,32.4433594 7.99887861,32.3288147 C7.67115405,32.2534485 7.58348251,32.0728088 7.55455685,32.0135926 C6.63758416,30.1225586 6.29226565,27.8720398 6.55647308,25.5051819 L6.55647308,25.5051819 Z" id="Shape"></path>
                <path d="M43.7041559,6.51020505 C43.6892831,6.49151302 43.6712045,6.47723233 43.6552134,6.4599983 C43.6091784,6.39943614 43.5675418,6.33625713 43.5204631,6.27633056 C40.3463956,2.23436888 35.26085,0.118133549 29.1822901,0.333764664 C16.8957505,0.758148212 4.22393302,10.7689941 0.93475935,22.6493408 C-0.690742526,28.5201294 0.162414877,33.9790954 3.33648236,38.020758 C3.33760065,38.0221786 3.33879344,38.0234497 3.33991167,38.0248703 C3.34009806,38.0250946 3.34017257,38.0253189 3.34035896,38.0255432 C3.3547845,38.0436745 3.37070105,38.0607964 3.38516391,38.0788902 C3.56404813,38.3042412 3.74781541,38.5246201 3.93851594,38.7377838 C8.93419075,44.6107407 16.4930279,48.6662353 24.5082641,48.6659363 C29.637049,48.6656372 34.9501231,47.0069824 39.8883567,43.1055847 C45.4760752,38.6912781 48.8350283,32.843219 49.6017069,26.1933471 C50.3868742,19.3834717 48.2374305,12.2090271 43.7041559,6.51020505 L43.7041559,6.51020505 Z M2.7001182,23.1410156 C5.79098722,11.9766479 17.6994062,2.56903074 29.2455091,2.17006839 C29.498683,2.16139527 29.7497695,2.15690919 29.9990668,2.15690919 C35.1367978,2.15690919 39.4070578,4.00846558 42.0813378,7.4134033 C44.8850378,10.983429 45.6224926,15.8639892 44.1571255,21.1563721 C41.0662565,32.3210388 29.1581357,41.7283569 17.6117346,42.1270203 C12.1391222,42.3166321 7.57990406,40.45401 4.77590587,36.8836853 C1.97190768,33.3136596 1.23475111,28.4330994 2.7001182,23.1410156 L2.7001182,23.1410156 Z M47.7814788,25.9825012 C47.0723533,32.135315 43.9507694,37.557196 38.7545907,41.662262 C33.3255159,45.9509583 27.0319519,47.6278565 20.5520114,46.5135133 C17.6879254,46.02053 14.9291422,44.9911232 12.3790261,43.5037248 C13.7904186,43.813601 15.2858297,43.9776795 16.8548967,43.9776795 C17.1259628,43.9776795 17.3994145,43.9728944 17.6749535,43.9633241 C29.9617915,43.5392395 42.633609,33.5283936 45.9224844,21.6480469 C46.466294,19.6839271 46.7261774,17.767958 46.7210707,15.9337105 C47.7828207,19.2144211 48.1661973,22.6466118 47.7814788,25.9825012 L47.7814788,25.9825012 Z" id="Shape"></path>
            </g>
        </g>
    </g>
</svg>
